<!-- Navbar Icons -->

<!-- Dashboard icon -->
<svg width="16" height="16" viewBox="0 0 16 16" fill="none" xmlns="http://www.w3.org/2000/svg">
<path d="M2.5 7.21997V13.5C2.5 14.0523 2.94772 14.5 3.5 14.5H5.5C6.05228 14.5 6.5 14.0523 6.5 13.5V10.3C6.5 9.74769 6.94772 9.29997 7.5 9.29997H8.5C9.05228 9.29997 9.5 9.74769 9.5 10.3V13.5C9.5 14.0523 9.94772 14.5 10.5 14.5H12.5C13.0523 14.5 13.5 14.0523 13.5 13.5V7.21997" stroke="#444444"/>
<path d="M1 8.78L7.27917 2.24967C7.67262 1.84048 8.32738 1.84048 8.72083 2.24967L15 8.78" stroke="#444444"/>
</svg>

<!-- Quotation Icon -->
<svg width="16" height="16" viewBox="0 0 16 16" fill="none" xmlns="http://www.w3.org/2000/svg">
<path d="M2.5 14V2C2.5 1.44772 2.94771 1 3.5 1H12.5C13.0523 1 13.5 1.44772 13.5 2V14C13.5 14.5523 13.0523 15 12.5 15H3.5C2.94772 15 2.5 14.5523 2.5 14Z" stroke="#444444"/>
<path d="M6 3.80005H9H12M6 6.60005H11M6 9.40005H9M6 12.2H12" stroke="#444444"/>
<path d="M4 3.80005H5M4 6.60005H5M4 9.40005H5M4 12.2H5" stroke="#444444"/>
</svg>

<!-- Sales Icon -->
<svg width="16" height="16" viewBox="0 0 16 16" fill="none" xmlns="http://www.w3.org/2000/svg">
<g clip-path="url(#clip0_577_990)">
<path d="M1 12.1035V15.0001" stroke="#444444" stroke-linecap="round"/>
<path d="M5.5 9.20703V15.0001" stroke="#444444" stroke-linecap="round"/>
<path d="M10.5 11.1379V15" stroke="#444444" stroke-linecap="round"/>
<path d="M15 7.27588V15" stroke="#444444" stroke-linecap="round"/>
<path d="M1 7.27586L6 4.37931L10.5 5.34483L15 1" stroke="#444444" stroke-linecap="round"/>
<path d="M11 1H15V4.37931" stroke="#444444" stroke-linecap="round"/>
</g>
<defs>
<clipPath id="clip0_577_990">
<rect width="16" height="16" fill="white"/>
</clipPath>
</defs>
</svg>

<!-- Inventory Icon -->
<svg width="16" height="16" viewBox="0 0 16 16" fill="none" xmlns="http://www.w3.org/2000/svg">
<path d="M14.243 11.8931L9.02101 14.2628C8.76955 14.3769 8.46896 14.2675 8.34963 14.0185L3.487 3.87059C3.36767 3.62156 3.06708 3.51219 2.81562 3.6263L1 4.4502M7.40676 9.16593L8.95562 12.3983C9.07495 12.6473 9.37554 12.7567 9.627 12.6425L14.0152 10.6512C14.2667 10.5371 14.3738 10.2428 14.2545 9.99373L12.7056 6.7614M7.40676 9.16593L5.85791 5.9336C5.73858 5.68457 5.84569 5.39019 6.09716 5.27608L10.4854 3.28478C10.7368 3.17067 11.0374 3.28004 11.1567 3.52907L12.7056 6.7614M7.40676 9.16593L12.7056 6.7614M7.68527 5.90065L9.9562 4.87014M9.45019 9.58389L11.7211 8.55338" stroke="#444444" stroke-width="0.8" stroke-linecap="round"/>
<path fill-rule="evenodd" clip-rule="evenodd" d="M6.33927 14.929C6.7083 14.929 7.00746 14.6379 7.00746 14.2788C7.00746 13.9197 6.7083 13.6285 6.33927 13.6285C5.97024 13.6285 5.67109 13.9197 5.67109 14.2788C5.67109 14.6379 5.97024 14.929 6.33927 14.929ZM6.33927 15.498C7.0312 15.498 7.59212 14.9521 7.59212 14.2788C7.59212 13.6054 7.0312 13.0596 6.33927 13.0596C5.64734 13.0596 5.08643 13.6054 5.08643 14.2788C5.08643 14.9521 5.64734 15.498 6.33927 15.498Z" fill="#444444"/>
</svg>

<!-- Bank Icon -->
<svg width="16" height="16" viewBox="0 0 16 16" fill="none" xmlns="http://www.w3.org/2000/svg">
<path d="M1 14.5H15M2.30769 13.0151H13.7436M3.08245 11.5594V7.34527M12.9086 11.5594V7.34527M8.01231 11.5594V7.34527M10.6617 11.5594V7.34527M5.59768 11.5594V7.34527M2.30769 6.06863L8.01231 1.5L13.7436 6.06863H2.30769Z" stroke="#444444" stroke-linecap="round"/>
</svg>

<!-- Master Icon -->
<svg width="16" height="16" viewBox="0 0 16 16" fill="none" xmlns="http://www.w3.org/2000/svg">
<path d="M8 15H3.5C2.94772 15 2.5 14.5523 2.5 14V2C2.5 1.44772 2.94771 1 3.5 1H12.5C13.0523 1 13.5 1.44772 13.5 2V14C13.5 14.5523 13.0523 15 12.5 15H10.75M8 15V13.2861M8 15H10.75M10.75 15V13.2861" stroke="#444444" stroke-linecap="round"/>
<path d="M9.81285 9.1022H6.3187C5.89955 9.1022 5.52488 8.84081 5.38018 8.44743L4.45775 5.93973C4.39441 5.76755 4.45642 5.57436 4.60812 5.47119C4.73099 5.38763 4.89007 5.37913 5.02115 5.44911L5.79866 5.86417C6.25381 6.10716 6.81911 5.96397 7.10371 5.53361L7.85856 4.39214C7.91726 4.30339 8.01657 4.25 8.12298 4.25C8.2293 4.25 8.32854 4.3033 8.38726 4.39194L9.19717 5.61458C9.49592 6.06557 10.0991 6.19722 10.5586 5.91171L11.481 5.33861C11.5453 5.29863 11.6266 5.29818 11.6914 5.33745C11.7731 5.38698 11.8087 5.48715 11.7766 5.57713L10.7546 8.43855C10.6124 8.83654 10.2355 9.1022 9.81285 9.1022Z" stroke="#444444" stroke-linecap="round"/>
</svg>

<!-- Report Icon -->
<svg width="16" height="16" viewBox="0 0 16 16" fill="none" xmlns="http://www.w3.org/2000/svg">
<path d="M6.71371 14.4678H3.5C2.94772 14.4678 2.5 14.0201 2.5 13.4678V2C2.5 1.44772 2.94772 1 3.5 1H9.99597M9.99597 1L13.5 4.35672M9.99597 1L9.84462 3.2908C9.8065 3.86777 10.2642 4.35672 10.8424 4.35672H13.5M13.5 4.35672V8.16374M13.5 9.67836V14.4678M11.1048 11.3977V14.4678M8.53226 12.9532V14.4678" stroke="#444444" stroke-linecap="round"/>
</svg>

<!-- Nav Active icon -->
<svg width="16" height="16" viewBox="0 0 16 16" fill="none" xmlns="http://www.w3.org/2000/svg">
<path d="M8 5V11" stroke="#4B38B3" stroke-width="4" stroke-linecap="round"/>
</svg>

<!-- Drop down Icon -->
<svg width="12" height="12" viewBox="0 0 12 12" fill="none" xmlns="http://www.w3.org/2000/svg">
<path d="M1 3.55029L5.89932 8.55029L11 3.55029" stroke="#444444" stroke-linecap="square"/>
</svg>

<!-- Sub nav Icon -->
<svg width="12" height="13" viewBox="0 0 12 13" fill="none" xmlns="http://www.w3.org/2000/svg">
<path d="M1.00721 6.58382C0.816907 3.74152 3.13576 1.25576 5.98618 1.25001C8.84095 1.24425 11.174 3.73314 10.9856 6.57992C10.8092 9.24533 8.6576 11.2562 5.9847 11.25C3.31952 11.2438 1.18515 9.2414 1.00721 6.58382Z" fill="#444444"/>
</svg>

<!-- Main page Icons start -->

<!-- SearchBar -->
<svg width="14" height="15" viewBox="0 0 14 15" fill="none" xmlns="http://www.w3.org/2000/svg">
<g clip-path="url(#clip0_589_1063)">
<path d="M5.88757 8.20816C4.3288 6.59359 4.34922 4.08565 5.88757 2.4923C7.57865 0.740759 10.2589 0.933852 11.7929 2.4923C13.3606 4.085 13.4436 6.67005 11.7929 8.31766C10.2487 9.85901 7.56527 9.94592 5.88757 8.20816ZM5.88757 8.20816C3.97886 10.1771 1 13.25 1 13.25" stroke="#444444" stroke-linecap="square"/>
</g>
<defs>
<clipPath id="clip0_589_1063">
<rect width="14" height="14" fill="white" transform="translate(0 0.25)"/>
</clipPath>
</defs>
</svg>

<!-- Notifivcation -->
<svg width="16" height="17" viewBox="0 0 16 17" fill="none" xmlns="http://www.w3.org/2000/svg">
<g clip-path="url(#clip0_590_1069)">
<path d="M2.47816 6.78376C2.47816 3.81682 4.77769 1.44158 7.65345 1.25H8.34655C11.2223 1.44158 13.5218 3.81682 13.5218 6.78376V9.03602C13.5218 11.1311 14.8986 12.5388 14.8986 12.5388C14.947 12.588 14.98 12.6507 14.9934 12.7189C15.0067 12.7871 14.9998 12.8578 14.9736 12.9221C14.9474 12.9864 14.903 13.0413 14.846 13.0799C14.7891 13.1186 14.7221 13.1393 14.6535 13.1393H10.0793C10.0793 14.3009 9.14438 15.25 8 15.25C6.85562 15.25 5.92068 14.3009 5.92068 13.1393H1.34645C1.27793 13.1393 1.21094 13.1186 1.15397 13.0799C1.097 13.0413 1.0526 12.9864 1.02638 12.9221C1.00016 12.8578 0.993291 12.7871 1.00665 12.7189C1.02001 12.6507 1.05299 12.588 1.10143 12.5388C1.10143 12.5388 2.47816 11.1311 2.47816 9.03602V6.78376Z" stroke="#444444"/>
</g>
<defs>
<clipPath id="clip0_590_1069">
<rect width="16" height="16" fill="white" transform="translate(0 0.25)"/>
</clipPath>
</defs>
</svg>

<!-- page expand icon -->
<svg width="16" height="17" viewBox="0 0 16 17" fill="none" xmlns="http://www.w3.org/2000/svg">
<g clip-path="url(#clip0_590_1080)">
<path d="M4.92387 1.25H2C1.44771 1.25 1 1.69772 1 2.25V5.11381M1 11.1855V14.25C1 14.8023 1.44772 15.25 2 15.25H4.92387M10.737 1.25H14C14.5523 1.25 15 1.69772 15 2.25V5.11381M15 11.4364V14.25C15 14.8023 14.5523 15.25 14 15.25H10.737" stroke="#444444" stroke-linecap="square"/>
</g>
<defs>
<clipPath id="clip0_590_1080">
<rect width="16" height="16" fill="white" transform="translate(0 0.25)"/>
</clipPath>
</defs>
</svg>

<!-- Page collabse icon -->
<svg width="16" height="17" viewBox="0 0 16 17" fill="none" xmlns="http://www.w3.org/2000/svg">
<g clip-path="url(#clip0_590_1083)">
<path d="M5.49336 1.25V4.64896C5.49336 5.20124 5.04564 5.64896 4.49336 5.64896H1M1 11.1571H4.49336C5.04564 11.1571 5.49336 11.6048 5.49336 12.1571V15.25M11.1751 15.25V12.1571C11.1751 11.6048 11.6228 11.1571 12.1751 11.1571H15M15 5.64896H12.1751C11.6228 5.64896 11.1751 5.20124 11.1751 4.64896V1.25" stroke="#444444" stroke-linecap="square"/>
</g>
<defs>
<clipPath id="clip0_590_1083">
<rect width="16" height="16" fill="white" transform="translate(0 0.25)"/>
</clipPath>
</defs>
</svg>

<!-- Calender(Range) Icon -->
<svg width="16" height="17" viewBox="0 0 16 17" fill="none" xmlns="http://www.w3.org/2000/svg">
<path d="M5.0506 1.25004C5.00224 1.25076 4.9545 1.26052 4.9101 1.27876C4.86571 1.29701 4.82554 1.32338 4.79187 1.35638C4.75821 1.38937 4.73171 1.42835 4.7139 1.47107C4.6961 1.51379 4.68732 1.55943 4.68808 1.60537V2.35496C4.68808 2.52064 4.55376 2.65496 4.38808 2.65496H2.11009C2.01242 2.65497 1.91875 2.69183 1.84969 2.75744C1.78063 2.82305 1.74182 2.91203 1.74181 3.00482V9.30234C1.74112 9.3487 1.75014 9.39473 1.76834 9.43775C1.78653 9.48077 1.81355 9.51993 1.84782 9.55295C1.88208 9.58597 1.92292 9.61218 1.96794 9.63008C2.01297 9.64797 2.06129 9.65719 2.11009 9.65719C2.1589 9.65719 2.20722 9.64797 2.25225 9.63008C2.29727 9.61218 2.3381 9.58597 2.37237 9.55295C2.40664 9.51993 2.43365 9.48077 2.45185 9.43775C2.47005 9.39473 2.47907 9.3487 2.47838 9.30234V7.15331C2.47838 6.98762 2.61269 6.85331 2.77838 6.85331H13.9634C14.1291 6.85331 14.2634 6.98762 14.2634 7.15331V14.2503C14.2634 14.416 14.1291 14.5503 13.9634 14.5503H2.77838C2.61269 14.5503 2.47838 14.416 2.47838 14.2503V12.1012C2.47907 12.0549 2.47005 12.0089 2.45185 11.9658C2.43365 11.9228 2.40664 11.8836 2.37237 11.8506C2.3381 11.8176 2.29727 11.7914 2.25225 11.7735C2.20722 11.7556 2.1589 11.7464 2.11009 11.7464C2.06129 11.7464 2.01297 11.7556 1.96794 11.7735C1.92292 11.7914 1.88208 11.8176 1.84782 11.8506C1.81355 11.8836 1.78653 11.9228 1.76834 11.9658C1.75014 12.0089 1.74112 12.0549 1.74181 12.1012V14.9001C1.74182 14.9929 1.78063 15.0819 1.84969 15.1475C1.91875 15.2131 2.01242 15.25 2.11009 15.25H14.6317C14.7294 15.25 14.8231 15.2131 14.8921 15.1475C14.9612 15.0819 15 14.9929 15 14.9001V3.00482C15 2.91203 14.9612 2.82305 14.8921 2.75744C14.8231 2.69183 14.7294 2.65497 14.6317 2.65496H12.3537C12.1881 2.65496 12.0537 2.52064 12.0537 2.35496V1.60537C12.0545 1.55851 12.0454 1.51197 12.0268 1.46853C12.0083 1.42509 11.9808 1.38563 11.9459 1.35248C11.911 1.31934 11.8695 1.29319 11.8237 1.2756C11.778 1.258 11.729 1.24931 11.6797 1.25004C11.6313 1.25076 11.5836 1.26052 11.5392 1.27876C11.4948 1.29701 11.4546 1.32338 11.421 1.35638C11.3873 1.38937 11.3608 1.42835 11.343 1.47107C11.3252 1.51379 11.3164 1.55943 11.3172 1.60537V2.35496C11.3172 2.52064 11.1829 2.65496 11.0172 2.65496H5.72464C5.55896 2.65496 5.42464 2.52064 5.42464 2.35496V1.60537C5.42541 1.55851 5.41627 1.51197 5.39774 1.46853C5.37922 1.42509 5.3517 1.38563 5.31681 1.35248C5.28192 1.31934 5.24038 1.29319 5.19465 1.2756C5.14892 1.258 5.09994 1.24931 5.0506 1.25004ZM2.47838 3.65468C2.47838 3.489 2.61269 3.35468 2.77838 3.35468H4.38808C4.55376 3.35468 4.68808 3.489 4.68808 3.65468V4.40427C4.68738 4.45063 4.6964 4.49666 4.7146 4.53968C4.7328 4.5827 4.75981 4.62186 4.79408 4.65488C4.82835 4.68789 4.86918 4.71411 4.91421 4.732C4.95923 4.7499 5.00755 4.75911 5.05636 4.75911C5.10517 4.75911 5.15348 4.7499 5.19851 4.732C5.24354 4.71411 5.28437 4.68789 5.31863 4.65488C5.3529 4.62186 5.37992 4.5827 5.39812 4.53968C5.41632 4.49666 5.42533 4.45063 5.42464 4.40427V3.65468C5.42464 3.489 5.55896 3.35468 5.72464 3.35468H11.0172C11.1829 3.35468 11.3172 3.489 11.3172 3.65468V4.40427C11.3165 4.45063 11.3255 4.49666 11.3437 4.53968C11.3619 4.5827 11.3889 4.62186 11.4232 4.65488C11.4574 4.68789 11.4983 4.71411 11.5433 4.732C11.5883 4.7499 11.6366 4.75911 11.6855 4.75911C11.7343 4.75911 11.7826 4.7499 11.8276 4.732C11.8726 4.71411 11.9135 4.68789 11.9477 4.65488C11.982 4.62186 12.009 4.5827 12.0272 4.53968C12.0454 4.49666 12.0544 4.45063 12.0537 4.40427V3.65468C12.0537 3.489 12.188 3.35468 12.3537 3.35468H13.9634C14.1291 3.35468 14.2634 3.489 14.2634 3.65468V5.85358C14.2634 6.01927 14.1291 6.15358 13.9634 6.15358H2.77838C2.61269 6.15358 2.47838 6.01927 2.47838 5.85358V3.65468ZM7.26174 8.94838C7.18839 8.94839 7.11671 8.96921 7.05589 9.00817C6.99507 9.04713 6.94789 9.10246 6.92038 9.16706C6.89287 9.23166 6.88629 9.30259 6.90148 9.37076C6.91668 9.43893 6.95296 9.50124 7.00567 9.54971L7.30538 9.83443C7.50185 10.0211 7.36975 10.3519 7.09876 10.3519H1.37353C1.32473 10.3513 1.27627 10.3598 1.23099 10.3771C1.1857 10.3944 1.14448 10.4201 1.10973 10.4526C1.07497 10.4852 1.04737 10.524 1.02854 10.5667C1.0097 10.6095 1 10.6554 1 10.7018C1 10.7482 1.0097 10.7941 1.02854 10.8368C1.04737 10.8796 1.07497 10.9184 1.10973 10.9509C1.14448 10.9835 1.1857 11.0092 1.23099 11.0265C1.27627 11.0437 1.32473 11.0523 1.37353 11.0517H7.09876C7.36976 11.0517 7.50185 11.3825 7.30538 11.5692L7.00567 11.8539C6.97033 11.8861 6.94211 11.9247 6.92267 11.9675C6.90324 12.0102 6.89297 12.0562 6.89247 12.1027C6.89198 12.1493 6.90126 12.1954 6.91978 12.2385C6.9383 12.2816 6.96569 12.3208 7.00033 12.3537C7.03498 12.3866 7.07619 12.4126 7.12155 12.4302C7.16691 12.4478 7.21551 12.4566 7.26451 12.4561C7.3135 12.4557 7.36191 12.4459 7.40688 12.4274C7.45186 12.409 7.49251 12.3822 7.52644 12.3486L8.99958 10.9492C9.06862 10.8835 9.1074 10.7946 9.1074 10.7018C9.1074 10.609 9.06862 10.52 8.99958 10.4544L7.52644 9.05498C7.4921 9.02126 7.45097 8.99444 7.40549 8.97613C7.36002 8.95782 7.31113 8.94838 7.26174 8.94838Z" fill="#444444"/>
</svg>

<!-- Add icon (Circle) -->
<svg width="16" height="17" viewBox="0 0 16 17" fill="none" xmlns="http://www.w3.org/2000/svg">
<path d="M1.50002 8.23242C1.50969 4.60448 4.48903 1.71159 8.06943 1.75039C11.6125 1.78878 14.4904 4.64263 14.5 8.23242C14.5096 11.8316 11.6218 14.7111 8.06943 14.7496C4.47993 14.7885 1.49033 11.8697 1.50002 8.23242Z" stroke="#444444" stroke-linecap="square"/>
</svg>

<!-- Money Icon (Indian ruupe) -->
<svg width="16" height="17" viewBox="0 0 16 17" fill="none" xmlns="http://www.w3.org/2000/svg">
<path d="M4 1.25V2.32692H6C7.30859 2.32692 8.40625 3.22716 8.82031 4.48077H4V5.55769H9C9 7.34976 7.66406 8.78846 6 8.78846H4V10.0589L9.21875 15.25H10.6953L5.28125 9.86538H6C8.20312 9.86538 10 7.93029 10 5.55769H12V4.48077H9.85937C9.65234 3.63101 9.21484 2.89063 8.61719 2.32692H12V1.25H4Z" fill="#101828"/>
</svg>

<!-- Cancel Icon -->
<svg width="16" height="17" viewBox="0 0 16 17" fill="none" xmlns="http://www.w3.org/2000/svg">
<path d="M1.98862 1.25L1 2.23862L7.00314 8.24725L1 14.2504L1.98862 15.25L7.99725 9.24137L14.0004 15.25L15 14.2504L8.99137 8.24725L15 2.23862L14.0004 1.25L7.99725 7.25314L1.98862 1.25Z" fill="#101828"/>
</svg>

<!-- Tag Icon -->
<svg width="16" height="17" viewBox="0 0 16 17" fill="none" xmlns="http://www.w3.org/2000/svg">
<path d="M9.00782 1.25C8.57439 1.25 8.16201 1.42253 7.86324 1.72971L1.46709 8.17636C0.844304 8.80335 0.844304 9.8301 1.46709 10.4571L5.79291 14.7829C6.4199 15.4057 7.44665 15.4057 8.07364 14.7829L14.5245 8.38676C14.8275 8.08378 15 7.6714 15 7.24219V2.86587C15 1.97798 14.272 1.25 13.3841 1.25H9.00782ZM9.00782 2.32725H13.3841C13.6871 2.32725 13.9228 2.56289 13.9228 2.86587V7.24219C13.9228 7.38526 13.8638 7.52412 13.7629 7.62511L7.3162 14.0213C7.10159 14.2359 6.76916 14.2317 6.55876 14.0213L2.23294 9.69124C2.01413 9.47663 2.01413 9.14841 2.22873 8.9338L8.62489 2.48715C8.72588 2.38616 8.86474 2.32725 9.00782 2.32725ZM12.3069 3.40449C12.0081 3.40449 11.7683 3.64435 11.7683 3.94312C11.7683 4.24188 12.0081 4.48174 12.3069 4.48174C12.6057 4.48174 12.8455 4.24188 12.8455 3.94312C12.8455 3.64435 12.6057 3.40449 12.3069 3.40449Z" fill="#444444"/>
</svg>

<!-- Manage column -->
<svg width="16" height="17" viewBox="0 0 16 17" fill="none" xmlns="http://www.w3.org/2000/svg">
<path d="M15 7.78333V8.71667H8.46667V15.25H7.53333V8.71667H1V7.78333H7.53333V1.25H8.46667V7.78333H15Z" fill="#444444"/>
</svg>

<!-- Shorting Icon -->
<svg width="16" height="17" viewBox="0 0 16 17" fill="none" xmlns="http://www.w3.org/2000/svg">
<path d="M8.30361 4.66113L7.68259 5.27637L5.35032 2.97266L5.34342 15.25H4.46019L4.46709 2.95215L2.12102 5.27637L1.5 4.66113L4.9018 1.29102L8.30361 4.66113ZM13.8721 11.2236L14.5 11.8389L11.0982 15.209L7.68949 11.8389L8.31741 11.2236L10.6497 13.5342L10.6428 1.25H11.526L11.5329 13.541L13.8721 11.2236Z" fill="#101828"/>
</svg>

<!-- Reset Icon -->
<svg width="16" height="17" viewBox="0 0 16 17" fill="none" xmlns="http://www.w3.org/2000/svg">
<path d="M4.49118 2.25L1 5.73337L4.49118 9.21673L5.19647 8.51223L2.91995 6.23434H10.4861C12.4179 6.23434 13.9969 7.83121 13.9969 9.76076C13.9969 11.6903 12.4218 13.248 10.4861 13.248H7.97845V14.25H10.4861C12.7862 14.25 14.6356 12.4927 14.8981 10.2617H15V9.76076C15 7.28327 12.9703 5.23239 10.4861 5.23239H2.91995L5.19647 2.9545L4.49118 2.25Z" fill="black"/>
</svg>

<!-- Redo Icon -->
<svg width="16" height="17" viewBox="0 0 16 17" fill="none" xmlns="http://www.w3.org/2000/svg">
<path d="M8 2.25C11.3081 2.25 14 4.94187 14 8.25C14 11.5581 11.3081 14.25 8 14.25C4.69187 14.25 2 11.5581 2 8.25H3C3 11.0179 5.23213 13.25 8 13.25C10.7679 13.25 13 11.0179 13 8.25C13 5.48213 10.7679 3.25 8 3.25C6.48889 3.25 5.14622 3.925 4.23047 4.98047L5.5 6.25H2V2.75L3.52344 4.27344C4.62313 3.03698 6.21887 2.25 8 2.25Z" fill="#4B38B3"/>
</svg>

<!-- Copy Icon -->
<svg class="duplicatecopy" width="16" height="17" viewBox="0 0 16 17" fill="none" xmlns="http://www.w3.org/2000/svg">
<path d="M2.4 1.25C1.6265 1.25 1 1.8765 1 2.65V11.75C1 12.1364 1.3136 12.45 1.7 12.45C2.0864 12.45 2.4 12.1364 2.4 11.75V2.65H11.5C11.8864 2.65 12.2 2.3364 12.2 1.95C12.2 1.5636 11.8864 1.25 11.5 1.25H2.4ZM5.2 4.05C4.4265 4.05 3.8 4.6765 3.8 5.45V13.85C3.8 14.6235 4.4265 15.25 5.2 15.25H13.6C14.3735 15.25 15 14.6235 15 13.85V5.45C15 4.6765 14.3735 4.05 13.6 4.05H5.2ZM5.2 5.45H13.6V13.85H5.2V5.45Z" fill="#666666"/>
</svg>

<!-- Rodate Icon -->
<svg width="16" height="17" viewBox="0 0 16 17" fill="none" xmlns="http://www.w3.org/2000/svg">
<path d="M8 1.25C4.14051 1.25 1 4.39051 1 8.25C1 12.1095 4.14051 15.25 8 15.25C11.8595 15.25 15 12.1095 15 8.25H13.8333C13.8333 11.4792 11.2292 14.0833 8 14.0833C4.77082 14.0833 2.16667 11.4792 2.16667 8.25C2.16667 5.02082 4.77082 2.41667 8 2.41667C9.76296 2.41667 11.3294 3.20417 12.3978 4.43555L10.9167 5.91667H15V1.83333L13.2227 3.61068C11.9397 2.16815 10.078 1.25 8 1.25Z" fill="#4B38B3"/>
</svg>

<!-- Edit Icon -->
<svg width="16" height="17" viewBox="0 0 16 17" fill="none" xmlns="http://www.w3.org/2000/svg">
<path d="M15 3.54004C15 3.84082 14.943 4.13249 14.8291 4.41504C14.7152 4.69759 14.5488 4.94824 14.3301 5.16699L5.32715 14.1699L1 15.25L2.08008 10.9229L11.083 1.91992C11.3018 1.70117 11.5524 1.53483 11.835 1.4209C12.1175 1.30697 12.4092 1.25 12.71 1.25C13.0244 1.25 13.3206 1.31152 13.5986 1.43457C13.8766 1.55306 14.1182 1.71712 14.3232 1.92676C14.5329 2.13184 14.6969 2.37337 14.8154 2.65137C14.9385 2.92936 15 3.22559 15 3.54004ZM3.22852 11.0117C3.71159 11.1712 4.1263 11.4264 4.47266 11.7773C4.82357 12.1237 5.07878 12.5384 5.23828 13.0215L12.6279 5.625L10.625 3.62207L3.22852 11.0117ZM2.20313 14.0469L4.45215 13.4863C4.40658 13.2767 4.33138 13.0785 4.22656 12.8916C4.1263 12.7048 4.00326 12.5384 3.85742 12.3926C3.71159 12.2467 3.54525 12.1237 3.3584 12.0234C3.17155 11.9186 2.97331 11.8434 2.76367 11.7979L2.20313 14.0469ZM13.25 5.00293C13.3639 4.889 13.4733 4.7819 13.5781 4.68164C13.6829 4.58138 13.7764 4.47656 13.8584 4.36719C13.9404 4.25326 14.0042 4.13249 14.0498 4.00488C14.0999 3.87272 14.125 3.72005 14.125 3.54688C14.125 3.35091 14.0863 3.16862 14.0088 3C13.9359 2.82682 13.8333 2.67643 13.7012 2.54883C13.5736 2.41667 13.4232 2.31413 13.25 2.24121C13.0814 2.16374 12.8991 2.125 12.7031 2.125C12.5299 2.125 12.3773 2.15007 12.2451 2.2002C12.1175 2.24577 11.9967 2.30957 11.8828 2.3916C11.7734 2.47363 11.6686 2.56706 11.5684 2.67188C11.4681 2.77669 11.361 2.88607 11.2471 3L13.25 5.00293Z" fill="#444444"/>
</svg>

<!-- Add Icon (square) -->
<svg class="addiconsq" width="16" height="17" viewBox="0 0 16 17" fill="none" xmlns="http://www.w3.org/2000/svg">
<path d="M2.61538 1.25C1.72776 1.25 1 1.97776 1 2.86538V13.6346C1 14.5222 1.72776 15.25 2.61538 15.25H13.3846C14.2722 15.25 15 14.5222 15 13.6346V2.86538C15 1.97776 14.2722 1.25 13.3846 1.25H2.61538ZM2.61538 2.32692H13.3846C13.6875 2.32692 13.9231 2.5625 13.9231 2.86538V13.6346C13.9231 13.9375 13.6875 14.1731 13.3846 14.1731H2.61538C2.3125 14.1731 2.07692 13.9375 2.07692 13.6346V2.86538C2.07692 2.5625 2.3125 2.32692 2.61538 2.32692ZM7.46154 4.48077V7.71154H4.23077V8.78846H7.46154V12.0192H8.53846V8.78846H11.7692V7.71154H8.53846V4.48077H7.46154Z" fill="#4B38B3"/>
</svg>

<!-- Calendar -->
<svg width="16" height="17" viewBox="0 0 16 17" fill="none" xmlns="http://www.w3.org/2000/svg">
<path d="M3.15385 1.25V2.32692H2.61538C1.72776 2.32692 1 3.05469 1 3.94231V13.6346C1 14.5222 1.72776 15.25 2.61538 15.25H13.3846C14.2722 15.25 15 14.5222 15 13.6346V3.94231C15 3.05469 14.2722 2.32692 13.3846 2.32692H12.8462V1.25H11.7692V2.32692H4.23077V1.25H3.15385ZM2.61538 3.40385H3.15385V4.48077H4.23077V3.40385H11.7692V4.48077H12.8462V3.40385H13.3846C13.6875 3.40385 13.9231 3.63942 13.9231 3.94231V5.55769H2.07692V3.94231C2.07692 3.63942 2.3125 3.40385 2.61538 3.40385ZM2.07692 6.63462H13.9231V13.6346C13.9231 13.9375 13.6875 14.1731 13.3846 14.1731H2.61538C2.3125 14.1731 2.07692 13.9375 2.07692 13.6346V6.63462ZM5.30769 7.71154V8.78846H6.38462V7.71154H5.30769ZM7.46154 7.71154V8.78846H8.53846V7.71154H7.46154ZM9.61538 7.71154V8.78846H10.6923V7.71154H9.61538ZM11.7692 7.71154V8.78846H12.8462V7.71154H11.7692ZM3.15385 9.86538V10.9423H4.23077V9.86538H3.15385ZM5.30769 9.86538V10.9423H6.38462V9.86538H5.30769ZM7.46154 9.86538V10.9423H8.53846V9.86538H7.46154ZM9.61538 9.86538V10.9423H10.6923V9.86538H9.61538ZM11.7692 9.86538V10.9423H12.8462V9.86538H11.7692ZM3.15385 12.0192V13.0962H4.23077V12.0192H3.15385ZM5.30769 12.0192V13.0962H6.38462V12.0192H5.30769ZM7.46154 12.0192V13.0962H8.53846V12.0192H7.46154Z" fill="#666666"/>
</svg>

<!-- Drag -->
<svg width="16" height="17" viewBox="0 0 16 17" fill="none" xmlns="http://www.w3.org/2000/svg">
<path d="M9.5 1.25H12.5V4.05H9.5V1.25ZM9.5 9.65V6.85H12.5V9.65H9.5ZM9.5 15.25V12.45H12.5V15.25H9.5ZM3.5 4.05V1.25H6.5V4.05H3.5ZM3.5 9.65V6.85H6.5V9.65H3.5ZM3.5 15.25V12.45H6.5V15.25H3.5Z" fill="#666666"/>
</svg>

<!-- Delete -->
<svg width="16" height="17" viewBox="0 0 16 17" fill="none" xmlns="http://www.w3.org/2000/svg">
<path d="M14 3.875H13.0769V13.9375C13.0769 14.1198 13.0409 14.2907 12.9688 14.4502C12.8966 14.6097 12.7981 14.7487 12.6731 14.8672C12.5481 14.9857 12.4014 15.0791 12.2332 15.1475C12.0649 15.2158 11.8846 15.25 11.6923 15.25H4.30769C4.11538 15.25 3.9351 15.2158 3.76683 15.1475C3.59856 15.0791 3.45192 14.9857 3.32692 14.8672C3.20192 14.7487 3.10337 14.6097 3.03125 14.4502C2.95913 14.2907 2.92308 14.1198 2.92308 13.9375V3.875H2V3H5.69231V2.125C5.69231 2.00195 5.71635 1.88802 5.76442 1.7832C5.8125 1.67839 5.8774 1.58724 5.95913 1.50977C6.04567 1.42773 6.14423 1.36393 6.25481 1.31836C6.36538 1.27279 6.48558 1.25 6.61538 1.25H9.38462C9.51442 1.25 9.63462 1.27279 9.74519 1.31836C9.85577 1.36393 9.95192 1.42773 10.0337 1.50977C10.1202 1.58724 10.1875 1.67839 10.2356 1.7832C10.2837 1.88802 10.3077 2.00195 10.3077 2.125V3H14V3.875ZM6.61538 3H9.38462V2.125H6.61538V3ZM12.1538 3.875H3.84615V13.9375C3.84615 14.056 3.89183 14.1585 3.98317 14.2451C4.07452 14.3317 4.18269 14.375 4.30769 14.375H11.6923C11.8173 14.375 11.9255 14.3317 12.0168 14.2451C12.1082 14.1585 12.1538 14.056 12.1538 13.9375V3.875ZM6.61538 12.625H5.69231V5.625H6.61538V12.625ZM8.46154 12.625H7.53846V5.625H8.46154V12.625ZM10.3077 12.625H9.38462V5.625H10.3077V12.625Z" fill="#444444"/>
</svg>

<!-- Empty Box -->
<svg width="16" height="17" viewBox="0 0 16 17" fill="none" xmlns="http://www.w3.org/2000/svg">
<path d="M5.33374 3.2503C5.2725 3.2503 5.20798 3.27291 5.15877 3.30786L2.23674 5.41306C2.23237 5.41615 2.22362 5.4182 2.21925 5.42128C2.21487 5.4254 2.21487 5.4254 2.2105 5.42951C2.20503 5.43465 2.19737 5.44082 2.193 5.44595C2.18206 5.45829 2.1755 5.47371 2.16675 5.48707C2.16347 5.49221 2.15254 5.49838 2.14926 5.50352L1.02944 7.60872C0.975852 7.71048 0.99663 7.83281 1.08193 7.91299C1.13551 7.96336 1.21097 7.987 1.28315 7.987C1.3258 7.987 1.36626 7.98083 1.40563 7.96233L2.12301 7.62517V12.9868C2.12301 13.1328 2.24877 13.25 2.40297 13.25H10.8016C10.8432 13.25 10.8803 13.2407 10.9153 13.2253C10.9252 13.2212 10.9328 13.214 10.9416 13.2089C10.9667 13.1945 10.993 13.1801 11.0116 13.1595C11.0149 13.1565 11.017 13.1544 11.0203 13.1513L13.26 10.5198C13.2993 10.4725 13.3212 10.415 13.3212 10.3553V8.58731L12.5076 9.38498C12.454 9.43741 12.3829 9.46722 12.3064 9.46722C12.2965 9.46722 12.2812 9.46824 12.2714 9.46722C12.1839 9.45797 12.1062 9.40657 12.0614 9.33564L10.5217 6.90973V12.7237H2.68292V5.8818H10.5217L12.3501 8.76822L14.9222 6.33409C15.013 6.24877 15.0239 6.11719 14.9572 6.01337L13.2775 3.38187C13.2753 3.37776 13.272 3.36954 13.2687 3.36542C13.2611 3.35309 13.2523 3.34281 13.2425 3.33253C13.2403 3.33048 13.2447 3.32636 13.2425 3.32431C13.2381 3.3202 13.2293 3.3202 13.225 3.31608C13.2151 3.30786 13.2097 3.29861 13.1987 3.29141C13.1965 3.29039 13.1922 3.29244 13.19 3.29141C13.1812 3.28627 13.1725 3.27908 13.1637 3.27497C13.155 3.27086 13.1462 3.26983 13.1375 3.26674C13.1222 3.2616 13.1101 3.2616 13.0937 3.25852C13.0883 3.25749 13.0817 3.25132 13.0762 3.2503C13.0719 3.24927 13.0631 3.25132 13.0587 3.2503C13.0511 3.2503 13.0489 3.2503 13.0412 3.2503H5.33374ZM5.42998 3.7766H12.3676L10.6879 5.3555H3.23408L5.42998 3.7766ZM5.20251 6.9344C5.04832 6.9344 4.92256 7.05261 4.92256 7.19755C4.92256 7.34249 5.04832 7.4607 5.20251 7.4607H8.00206C8.15626 7.4607 8.28202 7.34249 8.28202 7.19755C8.28202 7.05261 8.15626 6.9344 8.00206 6.9344H5.20251Z" fill="#6938EF"/>
</svg>

